<?xml version="1.0" encoding="UTF-8" standalone="no" ?>
<!DOCTYPE svg PUBLIC "-//W3C//DTD SVG 1.1//EN" "http://www.w3.org/Graphics/SVG/1.1/DTD/svg11.dtd">
<svg xmlns="http://www.w3.org/2000/svg" xmlns:xlink="http://www.w3.org/1999/xlink" version="1.1" width="400" height="100" viewBox="56.67 81.67 400 100" xml:space="preserve">
<desc>Created with Fabric.js 5.2.4</desc>
<defs>
</defs>
<rect x="0" y="0" width="100%" height="100%" fill="transparent"></rect>
<g transform="matrix(Infinity NaN NaN Infinity 0 0)" id="feefb52a-3dc6-4f39-804b-8ac4725a90bc"  >
</g>
<g transform="matrix(1 0 0 1 200 50)" id="f26fd81f-273c-4b24-864f-8860c3d07357"  >
<rect style="stroke: none; stroke-width: 1; stroke-dasharray: none; stroke-linecap: butt; stroke-dashoffset: 0; stroke-linejoin: miter; stroke-miterlimit: 4; fill: rgb(255,255,255); fill-rule: nonzero; opacity: 1; visibility: hidden;" vector-effect="non-scaling-stroke"  x="-200" y="-50" rx="0" ry="0" width="400" height="100" />
</g>
<g transform="matrix(0.12 0 0 0.12 400 96.37)"  >
<rect style="stroke: none; stroke-width: 1; stroke-dasharray: none; stroke-linecap: butt; stroke-dashoffset: 0; stroke-linejoin: miter; stroke-miterlimit: 4; fill: rgb(6,119,255); fill-rule: nonzero; opacity: 1; visibility: hidden;" vector-effect="non-scaling-stroke"  x="-250" y="-50" rx="0" ry="0" width="500" height="100" />
</g>
<g transform="matrix(0.81 0 0 0.81 169.46 135.17)"  >
<path style="stroke: none; stroke-width: 1; stroke-dasharray: none; stroke-linecap: butt; stroke-dashoffset: 0; stroke-linejoin: miter; stroke-miterlimit: 4; fill: rgb(255,0,0); fill-rule: nonzero; opacity: 1;" vector-effect="non-scaling-stroke"  transform=" translate(-77.69, -37.51)" d="M 0 0 L 36.84 0 L 36.84 75.01 L 0 75.01 z M 118.54 0 L 155.38 0 L 155.38 75.01 L 118.54 75.01 z M 72.58 15.61 L 77.84 4.9 L 83.06 15.22 C 83.71000000000001 16.310000000000002 84.24000000000001 16.22 85.28 15.700000000000001 L 89.77 13.48 L 86.85 27.89 C 86.24 30.72 87.85 31.55 89.6 29.63 L 96 22.79 L 97.7 26.66 C 98.27 27.83 99.13000000000001 27.66 100.27 27.45 L 106.88 26.06 L 104.66 34.41 L 104.66 34.589999999999996 C 104.39999999999999 35.68 103.88 36.589999999999996 105.1 37.12 L 107.44999999999999 38.29 L 93.77 49.82 C 92.38 51.25 92.86 51.69 93.38 53.3 L 94.64 57.169999999999995 L 81.93 54.87 C 80.36000000000001 54.48 79.27000000000001 54.48 79.23 55.739999999999995 L 79.75 70.32 L 75.93 70.32 L 76.45 55.779999999999994 C 76.45 54.349999999999994 75.36 54.38999999999999 72.79 54.919999999999995 L 61 57.18 L 62.52 53.31 C 63.040000000000006 51.830000000000005 63.18 50.830000000000005 62 49.830000000000005 L 48.11 38.46 L 50.68 36.89 C 51.42 36.32 51.46 35.72 51.07 34.45 L 48.46 26 L 55.160000000000004 27.43 C 57.03 27.87 57.550000000000004 27.43 58.03 26.43 L 59.9 22.6 L 66.52 30 C 67.69 31.39 69.35 30.48 68.83 28.48 L 65.65 12.86 L 70.57000000000001 15.69 C 71.35000000000001 16.169999999999998 72.18 16.3 72.66000000000001 15.389999999999999" stroke-linecap="round" />
</g>
<g transform="matrix(0.65 0 0 0.65 332 135.2)"  >
<path style="stroke: none; stroke-width: 1; stroke-dasharray: none; stroke-linecap: butt; stroke-dashoffset: 0; stroke-linejoin: miter; stroke-miterlimit: 4; fill: rgb(255,255,255); fill-rule: nonzero; opacity: 1;" vector-effect="non-scaling-stroke"  transform=" translate(-122.41, -37.91)" d="M 29.4 31.73 L 25.939999999999998 31.73 L 25.119999999999997 28.1 C 22.22 31.39 19.589999999999996 32.47 15.819999999999997 32.47 C 6.569999999999997 32.47 1.0299999999999976 25.119999999999997 1.0299999999999976 16.299999999999997 C 1.0299999999999976 7.479999999999997 6.57 0.12 15.82 0.12 C 22.57 0.12 28.23 3.71 29.05 10.67 L 23.78 10.67 C 23.26 6.61 19.720000000000002 4.53 15.780000000000001 4.53 C 9.16 4.53 6.4 10.370000000000001 6.4 16.29 C 6.4 22.209999999999997 9.17 28.049999999999997 15.780000000000001 28.049999999999997 C 21.310000000000002 28.129999999999995 24.340000000000003 24.809999999999995 24.43 19.569999999999997 L 16.22 19.569999999999997 L 16.22 15.47 L 29.4 15.47 Z M 44.83 28.44 C 40.42 28.44 38.47 24.44 38.47 20.53 C 38.47 16.62 40.42 12.66 44.83 12.66 C 49.239999999999995 12.66 51.19 16.66 51.19 20.53 C 51.19 24.400000000000002 49.24 28.44 44.83 28.44 Z M 44.83 32.33 C 52.01 32.33 56.12 27.4 56.12 20.529999999999998 C 56.12 13.659999999999997 52 8.77 44.83 8.77 C 37.66 8.77 33.54 13.7 33.54 20.53 C 33.54 27.360000000000003 37.65 32.34 44.83 32.34 Z M 58 9.38 L 63.36 9.38 L 69 26.54 L 69.09 26.54 L 74.54 9.369999999999997 L 79.64 9.369999999999997 L 71.64 31.72 L 66.11 31.72 Z M 86.51 18.58 C 86.48845823260433 17.010361231583488 87.099734339308 15.49814065248676 88.2059719854688 14.384377580161587 C 89.31220963162963 13.270614507836413 90.82025126025049 12.649100224157426 92.39 12.659999999999998 C 95.72 12.659999999999998 97.84 15.469999999999999 98.01 18.58 Z M 102.94 21.83 C 103.75999999999999 15.129999999999999 99.44 8.769999999999998 92.39 8.769999999999998 C 85.73 8.769999999999998 81.58 14.219999999999999 81.58 20.57 C 81.58 27.44 85.52 32.33 92.52 32.33 C 97.41 32.33 101.52 29.61 102.64 24.72 L 98 24.72 C 97.13 27.189999999999998 95.41 28.439999999999998 92.55 28.439999999999998 C 88.44 28.439999999999998 86.55 25.33 86.55 21.819999999999997 Z M 106.7 9.38 L 111.33 9.38 L 111.33 13.7 L 111.42 13.7 C 112.36316780746053 10.86113907701808 114.96136954771583 8.899556446166823 117.95 8.77 C 118.57247237460908 8.763740811581489 119.19445025153244 8.80721238362452 119.81 8.900000000000002 L 119.81 13.66 C 119.10842671377189 13.543905555742224 118.40046221012896 13.470437541213238 117.69000000000001 13.439999999999998 C 114.32 13.44 111.64 16.16 111.64 21.09 L 111.64 31.73 L 106.7 31.73 L 106.7 9.38 Z M 121.92 9.38 L 126.59 9.38 L 126.59 12.670000000000002 L 126.68 12.760000000000002 C 128.1218130800507 10.262439660528088 130.79625829766 8.734185250465652 133.68 8.760000000000002 C 138.52 8.760000000000002 141.59 11.350000000000001 141.59 16.37 L 141.59 31.73 L 136.66 31.73 L 136.66 17.68 C 136.57 14.18 135.19 12.68 132.29 12.68 C 129 12.68 126.88 15.27 126.88 18.56 L 126.88 31.73 L 121.94999999999999 31.73 L 121.94999999999999 9.38 Z M 146.74 9.38 L 151.41 9.38 L 151.41 12.49 L 151.54 12.49 C 152.94739988263987 10.05588723933976 155.60239411130743 8.618248443030687 158.41 8.77 C 161.13 8.77 163.69 9.94 164.68 12.49 C 166.20157948333508 10.110473447715906 168.85645719807968 8.69959557645164 171.68 8.77 C 176.39000000000001 8.77 179.16 10.85 179.16 16.29 L 179.16 31.73 L 174.23 31.73 L 174.23 18.67 C 174.23 15.120000000000001 174.01 12.670000000000002 170.17 12.670000000000002 C 166.83999999999997 12.670000000000002 165.41 14.880000000000003 165.41 18.67 L 165.41 31.770000000000003 L 160.48 31.770000000000003 L 160.48 17.38 C 160.48 14.309999999999999 159.48 12.669999999999998 156.54999999999998 12.669999999999998 C 153.99999999999997 12.669999999999998 151.66 14.749999999999998 151.66 18.459999999999997 L 151.66 31.73 L 146.73 31.73 L 146.73 9.38 Z M 188.21 18.58 C 188.18845823260432 17.010361231583488 188.799734339308 15.49814065248676 189.90597198546882 14.384377580161587 C 191.01220963162962 13.270614507836413 192.5202512602505 12.649100224157426 194.09 12.659999999999998 C 197.42000000000002 12.659999999999998 199.54 15.469999999999999 199.71 18.58 Z M 204.64000000000001 21.83 C 205.46 15.129999999999999 201.14000000000001 8.769999999999998 194.09 8.769999999999998 C 187.43 8.769999999999998 183.28 14.219999999999999 183.28 20.57 C 183.28 27.44 187.21 32.33 194.22 32.33 C 199.10999999999999 32.33 203.22 29.61 204.34 24.72 L 199.67000000000002 24.72 C 198.81 27.189999999999998 197.08 28.439999999999998 194.22000000000003 28.439999999999998 C 190.11 28.439999999999998 188.22000000000003 25.33 188.22000000000003 21.819999999999997 Z M 208.4 9.38 L 213.07 9.38 L 213.07 12.670000000000002 L 213.16 12.760000000000002 C 214.6018130800507 10.262439660528088 217.27625829765998 8.734185250465652 220.16 8.760000000000002 C 225 8.760000000000002 228.07 11.350000000000001 228.07 16.37 L 228.07 31.73 L 223.1 31.73 L 223.1 17.68 C 223.01 14.18 221.63 12.68 218.73 12.68 C 215.44 12.68 213.32 15.27 213.32 18.56 L 213.32 31.73 L 208.4 31.73 L 208.4 9.38 Z M 231 9.38 L 234.71 9.38 L 234.71 2.67 L 239.64000000000001 2.67 L 239.64000000000001 9.370000000000001 L 244.09 9.370000000000001 L 244.09 13.05 L 239.64000000000001 13.05 L 239.64000000000001 25 C 239.64000000000001 27 239.81 28.07 242.02 28.07 C 242.71815831538075 28.098324758348088 243.41708676076126 28.037840565959392 244.10000000000002 27.89 L 244.10000000000002 31.7 C 243.02 31.779999999999998 241.98000000000002 31.96 240.90000000000003 31.96 C 235.75000000000003 31.96 234.80000000000004 29.96 234.71000000000004 26.25 L 234.71000000000004 13.05 L 231 13.05 L 231 9.38 Z M 12 71.68 C 7.59 71.68 5.64 67.68 5.64 63.77000000000001 C 5.64 59.860000000000014 7.6 55.9 12 55.9 C 16.4 55.9 18.36 59.9 18.36 63.769999999999996 C 18.36 67.63999999999999 16.43 71.68 12 71.68 Z M 12 75.57000000000001 C 19.18 75.57000000000001 23.28 70.64000000000001 23.28 63.77000000000001 C 23.28 56.900000000000006 19.19 52 12 52 C 4.809999999999999 52 0.7100000000000009 56.93 0.7100000000000009 63.76 C 0.7100000000000009 70.59 4.83 75.57 12 75.57 Z M 25.2 52.61 L 28.869999999999997 52.61 L 28.869999999999997 50.76 C 28.869999999999997 45.05 31.869999999999997 44.099999999999994 35.05 44.099999999999994 C 36.211342278373394 44.05485169765785 37.37375965551344 44.155639331513925 38.50999999999999 44.39999999999999 L 38.51 48.24999999999999 C 37.76242488877741 48.05751604942427 36.99169878788133 47.9700100292352 36.21999999999999 47.989999999999995 C 34.879999999999995 47.989999999999995 33.8 48.46999999999999 33.8 50.31999999999999 L 33.8 52.60999999999999 L 38 52.60999999999999 L 38 56.28999999999999 L 33.8 56.28999999999999 L 33.8 75 L 28.869999999999997 75 L 28.869999999999997 56.29 L 25.2 56.29 Z M 74.58 53.91 C 73.67 50.36 71.38 47.769999999999996 66.88 47.769999999999996 C 60.26 47.769999999999996 57.49999999999999 53.61 57.49999999999999 59.529999999999994 C 57.49999999999999 65.44999999999999 60.269999999999996 71.28999999999999 66.88 71.28999999999999 C 71.67999999999999 71.28999999999999 74.32 67.69999999999999 74.75 63.19999999999999 L 80 63.19999999999999 C 79.57 70.58999999999999 74.34 75.69999999999999 66.86 75.69999999999999 C 57.61 75.69999999999999 52.07 68.35 52.07 59.52999999999999 C 52.07 50.70999999999998 57.61 43.359999999999985 66.86 43.359999999999985 C 73.86 43.359999999999985 79.31 47.249999999999986 79.96 53.90999999999998 L 74.55999999999999 53.90999999999998 Z M 98.06 67.45 C 98.06 70.56 94.69 71.69 92.52 71.69 C 90.78999999999999 71.69 87.97999999999999 71.03999999999999 87.97999999999999 68.84 C 87.97999999999999 66.25 89.88 65.47 91.97999999999999 65.12 C 94.07999999999998 64.77000000000001 96.52 64.77000000000001 98.02999999999999 63.78 Z M 102.99000000000001 58.45 C 102.99000000000001 53.74 98.41000000000001 51.97 93.99000000000001 51.97 C 89.06 51.97 84.17000000000002 53.66 83.83000000000001 59.41 L 88.76000000000002 59.41 C 89 57 91 55.9 93.73 55.9 C 95.73 55.9 98.36 56.379999999999995 98.36 58.9 C 98.36 61.8 95.2 61.41 91.66 62.06 C 87.50999999999999 62.53 83.06 63.440000000000005 83.06 69.06 C 83.06 73.43 86.69 75.59 90.71000000000001 75.59 C 93.53710614816215 75.66857999643767 96.29357376374959 74.69989887054648 98.45 72.87 C 98.84 74.87 100.27 75.59 102.25 75.59 C 103.3063569624338 75.53716760348816 104.3515636924335 75.34896317622132 105.36 75.03 L 105.36 71.6 C 104.95964421101162 71.66073970174855 104.55486762316687 71.6875017902011 104.15 71.67999999999999 C 103.24000000000001 71.67999999999999 102.98 71.21 102.98 69.99 Z M 108.3 52.61 L 113 52.61 L 113 55.9 L 113.09 55.99 C 114.53181308005072 53.492439660528085 117.20625829765999 51.964185250465654 120.09 51.99 C 124.93 51.99 128 54.58 128 59.6 L 128 75 L 123 75 L 123 60.92 C 122.91 57.42 121.53 55.92 118.63 55.92 C 115.33999999999999 55.92 113.22 58.510000000000005 113.22 61.800000000000004 L 113.22 75 L 108.3 75 L 108.3 52.61 Z M 146.91 67.45 C 146.91 70.56 143.54 71.69 141.38 71.69 C 139.65 71.69 136.84 71.03999999999999 136.84 68.84 C 136.84 66.25 138.74 65.47 140.84 65.12 C 142.94 64.77000000000001 145.38 64.77000000000001 146.89000000000001 63.78 Z M 151.84 58.45 C 151.84 53.74 147.26 51.97 142.84 51.97 C 137.91 51.97 133.03 53.66 132.68 59.41 L 137.61 59.41 C 137.83 56.989999999999995 139.77 55.87 142.54000000000002 55.87 C 144.54000000000002 55.87 147.17000000000002 56.349999999999994 147.17000000000002 58.87 C 147.17000000000002 61.769999999999996 144.01000000000002 61.379999999999995 140.47000000000003 62.03 C 136.32000000000002 62.5 131.87000000000003 63.410000000000004 131.87000000000003 69.03 C 131.87000000000003 73.4 135.50000000000003 75.56 139.52000000000004 75.56 C 142.3471061481622 75.63857999643767 145.10357376374964 74.66989887054648 147.26000000000005 72.84 C 147.65000000000003 74.84 149.08000000000004 75.56 151.06000000000006 75.56 C 152.11635696243385 75.50716760348816 153.1615636924336 75.31896317622132 154.17000000000007 75 L 154.17000000000007 71.6 C 153.7696390491292 71.66069220924913 153.36486648744997 71.6874540315089 152.96000000000006 71.67999999999999 C 152.05000000000007 71.67999999999999 151.79000000000008 71.21 151.79000000000008 69.99 Z M 161 64 C 161 60 162.64 55.87 167.27 55.87 C 171.07000000000002 55.87 173.45000000000002 58.809999999999995 173.45000000000002 63.739999999999995 C 173.45000000000002 67.63 171.59 71.64999999999999 167.18 71.64999999999999 C 162.77 71.64999999999999 161 67.88 161 64 Z M 178.22 44.1 L 173.29 44.1 L 173.29 55.51 L 173.2 55.51 C 171.69 53.05 168.57 52.01 165.76 52.01 C 160.87 52.01 156.07999999999998 55.55 156.07999999999998 63.64 C 156.07999999999998 70.34 159.48999999999998 75.57 166.54 75.57 C 169.35 75.57 172.16 74.49 173.45999999999998 71.94 L 173.54999999999998 71.94 L 173.54999999999998 74.94 L 178.21999999999997 74.94 L 178.21999999999997 44.1 Z M 197.37 67.45 C 197.37 70.56 194 71.69 191.83 71.69 C 190.10000000000002 71.69 187.29000000000002 71.03999999999999 187.29000000000002 68.84 C 187.29000000000002 66.25 189.19000000000003 65.47 191.29000000000002 65.12 C 193.39000000000001 64.77000000000001 195.83 64.77000000000001 197.34000000000003 63.78 Z M 202.3 58.45 C 202.3 53.74 197.72 51.97 193.3 51.97 C 188.37 51.97 183.48000000000002 53.66 183.14000000000001 59.41 L 188.07000000000002 59.41 C 188.29000000000002 56.989999999999995 190.23000000000002 55.87 193.00000000000003 55.87 C 195.00000000000003 55.87 197.63000000000002 56.349999999999994 197.63000000000002 58.87 C 197.63000000000002 61.769999999999996 194.47000000000003 61.379999999999995 190.93000000000004 62.03 C 186.78000000000003 62.5 182.33000000000004 63.410000000000004 182.33000000000004 69.03 C 182.33000000000004 73.4 185.96000000000004 75.56 189.98000000000005 75.56 C 192.80725453522535 75.63952969942585 195.5640521182524 74.67073261598483 197.72000000000006 72.84 C 198.11000000000004 74.84 199.54000000000005 75.56 201.52000000000007 75.56 C 202.57636954904387 75.50727749709023 203.62159022934188 75.31907055787258 204.63000000000008 75 L 204.63000000000008 71.6 C 204.2296442110117 71.66073970174855 203.82486762316694 71.6875017902011 203.42000000000007 71.67999999999999 C 202.51000000000008 71.67999999999999 202.25000000000009 71.21 202.25000000000009 69.99 Z" stroke-linecap="round" />
</g>
</svg>