<?xml version="1.0" encoding="UTF-8" standalone="no" ?>
<!DOCTYPE svg PUBLIC "-//W3C//DTD SVG 1.1//EN" "http://www.w3.org/Graphics/SVG/1.1/DTD/svg11.dtd">
<svg xmlns="http://www.w3.org/2000/svg" xmlns:xlink="http://www.w3.org/1999/xlink" version="1.1" width="100" height="100" viewBox="0 0 100 100" xml:space="preserve">
<desc>Created with Fabric.js 5.2.4</desc>
<defs>
</defs>
<g transform="matrix(0 0 0 0 0 0)" id="be5e0c8a-1c1f-48c2-ac7e-26c1f5a61c05"  >
</g>
<g transform="matrix(1 0 0 1 50 50)" id="270bcaf0-d5b7-4700-bbee-a70c37209363"  >
<rect style="stroke: none; stroke-width: 1; stroke-dasharray: none; stroke-linecap: butt; stroke-dashoffset: 0; stroke-linejoin: miter; stroke-miterlimit: 4; fill: rgb(255,255,255); fill-rule: nonzero; opacity: 1; visibility: hidden;" vector-effect="non-scaling-stroke"  x="-50" y="-50" rx="0" ry="0" width="100" height="100" />
</g>
<g transform="matrix(0.75 0 0 0.75 50 50)" id="005be9b4-d7a3-4bab-99b0-eebcc6962931"  >
<path style="stroke: rgb(0,0,0); stroke-width: 0; stroke-dasharray: none; stroke-linecap: butt; stroke-dashoffset: 0; stroke-linejoin: miter; stroke-miterlimit: 4; fill: rgb(255,191,95); fill-rule: nonzero; opacity: 1;" vector-effect="non-scaling-stroke"  transform=" translate(-46.14, -61.44)" d="M 41.04 67.52 C 43.69 64.86999999999999 43.48 62.169999999999995 43 58.809999999999995 L 49.93 51.879999999999995 L 56.92 70.06 C 61.760000000000005 65.22 63.050000000000004 67.22 61.6 60.85 L 61.59 60.79 L 64.61 57.769999999999996 L 61.8 54.959999999999994 L 60.529999999999994 56.23 L 59.74999999999999 52.879999999999995 L 63.13999999999999 49.489999999999995 L 60.32999999999999 46.67999999999999 L 58.68999999999999 48.31999999999999 L 57.709999999999994 44.10999999999999 L 64.86999999999999 36.94999999999999 C 65.88 35.93999999999999 65.60999999999999 34.02999999999999 64.27 32.68999999999999 L 64.27 32.68999999999999 C 62.92999999999999 31.34999999999999 61.01 31.07999999999999 60.01 32.08999999999999 L 52.849999999999994 39.249999999999986 L 48.589999999999996 38.259999999999984 L 50.24999999999999 36.609999999999985 L 47.43999999999999 33.79999999999998 L 44.02999999999999 37.20999999999998 L 40.679999999999986 36.42999999999998 L 41.969999999999985 35.13999999999998 L 39.15999999999998 32.32999999999998 L 36.11999999999998 35.369999999999976 C 29.799999999999983 33.88999999999998 31.759999999999984 34.909999999999975 26.759999999999984 39.909999999999975 L 45.06999999999998 47.02999999999997 L 38.15999999999998 53.93999999999997 C 34.759999999999984 53.25999999999997 32.37999999999998 52.96999999999997 29.41999999999998 55.93999999999997 L 32.59999999999998 59.17999999999997 C 33.90999999999998 59.33999999999997 34.85999999999998 59.40999999999997 35.54999999999998 59.49999999999997 C 35.749999999999986 59.88999999999997 36.01999999999998 60.269999999999975 36.359999999999985 60.60999999999997 L 36.359999999999985 60.60999999999997 C 36.73999999999999 60.989999999999974 37.179999999999986 61.28999999999997 37.61999999999998 61.489999999999974 C 37.72999999999998 62.21999999999997 37.83999999999998 63.229999999999976 38.069999999999986 64.64999999999998 L 41.04 67.52 L 41.04 67.52 L 41.04 67.52 z M 47.49 116.85 C 53.800000000000004 112.83999999999999 59.47 107.97999999999999 64.41 102.56 C 75.14 90.81 82.38 76.45 85.28 62.36 C 88.16 48.45 86.8 34.82 80.43 24.299999999999997 C 78.62 21.279999999999998 76.35000000000001 18.519999999999996 73.65 16.04 C 65.91000000000001 8.989999999999998 57.050000000000004 5.629999999999999 48.13000000000001 5.539999999999999 C 38.76000000000001 5.469999999999999 29.26000000000001 8.989999999999998 20.86000000000001 15.68 C 17.28000000000001 18.54 14.330000000000009 21.83 12.04000000000001 25.46 C 6.1400000000000095 34.74 4.350000000000009 46.260000000000005 6.30000000000001 58.31 C 8.27000000000001 70.54 14.080000000000009 83.33 23.34000000000001 94.92 C 29.780000000000012 103 37.88000000000001 110.5 47.52000000000001 116.83 L 47.49 116.85 L 47.49 116.85 L 47.49 116.85 z M 68.52 106.27 C 62.919999999999995 112.39 56.42999999999999 117.88 49.099999999999994 122.33 C 48.21999999999999 122.99 46.96999999999999 123.08 45.96999999999999 122.44 C 35.16999999999999 115.57 26.11999999999999 107.31 18.979999999999993 98.35 C 9.15 86.02 2.94 72.34 0.83 59.16 C -1.3199999999999998 45.8 0.69 32.959999999999994 7.34 22.479999999999997 C 9.969999999999999 18.349999999999998 13.309999999999999 14.589999999999996 17.41 11.339999999999996 C 26.78 3.88 37.51 -0.07 48.17 0 C 58.45 0.09 68.59 3.9 77.39 11.93 C 80.48 14.74 83.06 17.92 85.17 21.41 C 92.32000000000001 33.18 93.86 48.22 90.73 63.42 C 87.62 78.46000000000001 79.93 93.75 68.54 106.22 L 68.52 106.27 L 68.52 106.27 L 68.52 106.27 z" stroke-linecap="round" />
</g>
</svg>