<?xml version="1.0" encoding="UTF-8" standalone="no" ?>
<!DOCTYPE svg PUBLIC "-//W3C//DTD SVG 1.1//EN" "http://www.w3.org/Graphics/SVG/1.1/DTD/svg11.dtd">
<svg xmlns="http://www.w3.org/2000/svg" xmlns:xlink="http://www.w3.org/1999/xlink" version="1.1" width="100" height="100" viewBox="0 0 100 100" xml:space="preserve">
<desc>Created with Fabric.js 5.2.4</desc>
<defs>
</defs>
<g transform="matrix(1 0 0 1 50 50)" id="270bcaf0-d5b7-4700-bbee-a70c37209363"  >
<rect style="stroke: none; stroke-width: 1; stroke-dasharray: none; stroke-linecap: butt; stroke-dashoffset: 0; stroke-linejoin: miter; stroke-miterlimit: 4; fill: rgb(255,255,255); fill-rule: nonzero; opacity: 1; visibility: hidden;" vector-effect="non-scaling-stroke"  x="-50" y="-50" rx="0" ry="0" width="100" height="100" />
</g>
<g transform="matrix(Infinity NaN NaN Infinity 0 0)" id="be5e0c8a-1c1f-48c2-ac7e-26c1f5a61c05"  >
</g>
<g transform="matrix(0.76 0 0 0.76 50 50)" id="ce02c80c-00f4-484c-a1e3-a3d352fdecc9"  >
<path style="stroke: rgb(0,0,0); stroke-width: 0; stroke-dasharray: none; stroke-linecap: butt; stroke-dashoffset: 0; stroke-linejoin: miter; stroke-miterlimit: 4; fill: rgb(255,191,95); fill-rule: nonzero; opacity: 1;" vector-effect="non-scaling-stroke"  transform=" translate(-61.43, -44.52)" d="M 61.44 21.18 C 74.32 21.18 84.77 31.63 84.77 44.51 C 84.77 57.39 74.32 67.84 61.44 67.84 C 48.56 67.84 38.11 57.4 38.11 44.51 C 38.11 31.63 48.55 21.18 61.44 21.18 L 61.44 21.18 L 61.44 21.18 z M 105.78 87.97 C 105.24 88.6 104.5 88.94 103.74 89 C 102.97 89.06 102.16 88.82 101.50999999999999 88.28 C 100.85999999999999 87.74 100.50999999999999 86.99 100.44999999999999 86.23 L 100.44999999999999 86.22 C 100.39999999999999 85.45 100.63 84.65 101.16999999999999 84 C 106.36999999999999 77.93 110.30999999999999 71.48 112.92999999999999 64.84 C 115.55999999999999 58.190000000000005 116.86 51.34 116.78999999999999 44.480000000000004 C 116.74 37.690000000000005 115.33999999999999 30.860000000000007 112.57 24.150000000000006 C 109.86 17.610000000000007 105.83999999999999 11.180000000000005 100.46 5.030000000000005 C 99.91999999999999 4.400000000000005 99.66999999999999 3.6100000000000048 99.72999999999999 2.8400000000000047 C 99.77999999999999 2.0700000000000047 100.11999999999999 1.3100000000000047 100.74 0.7500000000000049 L 100.75999999999999 0.7300000000000049 C 101.38 0.19000000000000483 102.16999999999999 -0.03999999999999515 102.94 0.010000000000004894 C 103.71 0.0600000000000049 104.47 0.4100000000000049 105.03 1.030000000000005 C 110.89 7.750000000000004 115.27 14.770000000000005 118.22 21.950000000000006 C 121.26 29.340000000000007 122.78999999999999 36.900000000000006 122.86 44.43000000000001 C 122.92999999999999 52.06000000000001 121.49 59.64000000000001 118.62 66.98 C 115.75 74.28 111.46000000000001 81.34 105.79 87.95 L 105.78 87.97 L 105.78 87.97 z M 92.11 75.32 C 91.55 75.94 90.79 76.28999999999999 90.01 76.33 C 89.24000000000001 76.38 88.44000000000001 76.12 87.82000000000001 75.57 C 87.2 75.00999999999999 86.85000000000001 74.25 86.81 73.47 C 86.76 72.7 87.01 71.9 87.57000000000001 71.28 L 87.58000000000001 71.27 C 91.46000000000001 66.89 94.38000000000001 62.41 96.31000000000002 57.9 C 98.23000000000002 53.4 99.17000000000002 48.86 99.10000000000002 44.32 C 99.03000000000003 39.86 97.97000000000003 35.36 95.87000000000002 30.89 C 93.81000000000002 26.48 90.74000000000002 22.08 86.64000000000001 17.740000000000002 L 86.62000000000002 17.71 C 86.05000000000003 17.11 85.79000000000002 16.34 85.82000000000002 15.580000000000002 C 85.85000000000002 14.810000000000002 86.17000000000002 14.040000000000003 86.76000000000002 13.470000000000002 L 86.80000000000003 13.430000000000003 C 87.40000000000002 12.860000000000003 88.17000000000003 12.600000000000003 88.93000000000002 12.620000000000003 C 89.70000000000002 12.640000000000002 90.47000000000003 12.970000000000002 91.05000000000003 13.560000000000002 L 91.06000000000003 13.570000000000002 C 95.68000000000004 18.470000000000002 99.13000000000002 23.480000000000004 101.46000000000004 28.550000000000004 L 101.47000000000004 28.580000000000005 C 103.85000000000004 33.75000000000001 105.06000000000004 38.99000000000001 105.15000000000005 44.230000000000004 C 105.24000000000005 49.540000000000006 104.17000000000004 54.82000000000001 101.99000000000005 60.010000000000005 C 99.82000000000005 65.16000000000001 96.54000000000005 70.23 92.20000000000005 75.14 C 92.19 75.2 92.16 75.26 92.11 75.32 L 92.11 75.32 z M 35.34 71.32 C 35.89 71.94 36.14 72.72999999999999 36.09 73.49 C 36.040000000000006 74.25999999999999 35.7 75.03 35.080000000000005 75.58999999999999 C 34.46000000000001 76.14999999999999 33.67000000000001 76.39999999999999 32.900000000000006 76.35999999999999 C 32.13 76.30999999999999 31.360000000000007 75.96999999999998 30.800000000000004 75.34999999999998 C 26.410000000000004 70.37999999999998 23.090000000000003 65.25999999999998 20.890000000000004 60.04999999999998 C 18.710000000000004 54.86999999999998 17.630000000000003 49.59999999999998 17.720000000000006 44.29999999999998 C 17.810000000000006 39.05999999999998 19.030000000000005 33.80999999999998 21.410000000000007 28.619999999999983 L 21.42000000000001 28.589999999999982 C 23.750000000000007 23.529999999999983 27.20000000000001 18.519999999999982 31.80000000000001 13.639999999999983 L 31.830000000000013 13.609999999999983 C 32.41000000000001 13.019999999999984 33.180000000000014 12.709999999999983 33.95000000000001 12.679999999999984 C 34.72000000000001 12.659999999999984 35.50000000000001 12.929999999999984 36.10000000000001 13.509999999999984 C 36.71000000000001 14.089999999999984 37.03000000000001 14.869999999999983 37.05000000000001 15.639999999999983 C 37.070000000000014 16.409999999999982 36.80000000000001 17.189999999999984 36.22000000000001 17.78999999999998 C 32.13000000000001 22.14999999999998 29.060000000000013 26.55999999999998 26.990000000000013 30.96999999999998 C 24.900000000000013 35.43999999999998 23.830000000000013 39.92999999999998 23.750000000000014 44.36999999999998 C 23.680000000000014 48.899999999999984 24.630000000000013 53.43999999999998 26.550000000000015 57.91999999999999 C 28.460000000000015 62.39999999999999 31.350000000000016 66.83999999999999 35.15000000000001 71.16999999999999 C 35.210000000000015 71.18999999999998 35.27000000000001 71.21999999999998 35.31000000000001 71.26999999999998 L 35.34 71.32 L 35.34 71.32 z M 21.69 84 L 21.720000000000002 84.03 C 22.250000000000004 84.67 22.480000000000004 85.46000000000001 22.430000000000003 86.23 C 22.370000000000005 87 22.020000000000003 87.74000000000001 21.390000000000004 88.28 L 21.340000000000003 88.32000000000001 C 20.700000000000003 88.85000000000001 19.910000000000004 89.08000000000001 19.140000000000004 89.02000000000001 C 18.370000000000005 88.96000000000001 17.620000000000005 88.60000000000001 17.080000000000005 87.96000000000001 C 11.410000000000005 81.34 7.110000000000005 74.28 4.250000000000005 66.98 C 1.37 59.65 -0.07 52.07 0 44.44 C 0.08 36.9 1.6 29.339999999999996 4.64 21.95 C 7.6 14.77 11.97 7.74 17.83 1.04 C 18.369999999999997 0.42000000000000004 19.119999999999997 0.07000000000000006 19.9 0.020000000000000018 C 20.669999999999998 -0.029999999999999985 21.47 0.21000000000000002 22.11 0.75 L 22.12 0.76 C 22.740000000000002 1.3 23.09 2.05 23.14 2.83 C 23.19 3.6 22.95 4.4 22.41 5.04 L 22.4 5.05 C 17.03 11.19 13 17.61 10.3 24.15 C 7.530000000000001 30.86 6.130000000000001 37.69 6.080000000000001 44.48 C 6.030000000000001 51.37 7.340000000000001 58.23 9.96 64.89 C 12.58 71.52 16.51 77.94 21.69 84 L 21.69 84 z M 69.74 45.96 C 70.92999999999999 45.19 70.92 44.34 69.74 43.660000000000004 L 57.47 36.6 C 56.5 35.99 55.49 36.35 55.519999999999996 37.61 L 55.559999999999995 51.87 C 55.63999999999999 53.239999999999995 56.42999999999999 53.62 57.58 52.98 L 69.74 45.96 L 69.74 45.96 L 69.74 45.96 z M 61.44 25.92 C 71.71 25.92 80.03 34.24 80.03 44.510000000000005 C 80.03 54.78 71.71000000000001 63.10000000000001 61.44 63.10000000000001 C 51.17 63.10000000000001 42.849999999999994 54.78000000000001 42.849999999999994 44.510000000000005 C 42.85 34.24 51.17 25.92 61.44 25.92 L 61.44 25.92 L 61.44 25.92 z" stroke-linecap="round" />
</g>
</svg>